<svg width="530" height="543" viewBox="0 0 530 543" fill="none" xmlns="http://www.w3.org/2000/svg">
<g clip-path="url(#clip0_15_418)">
<rect width="530" height="543" fill="white"/>
<path d="M3.03995 242.363C4.60235 244.944 6.71787 247.155 9.23749 248.84C11.7571 250.525 14.6196 251.643 17.6232 252.115C20.6268 252.587 23.6985 252.402 26.6221 251.573C29.5456 250.744 32.2498 249.291 34.5441 247.316L98.6735 283.698L96.2834 245.771L35.7515 217.036C32.1422 213.443 27.326 211.285 22.2154 210.97C17.1049 210.655 12.0551 212.206 8.02302 215.328C3.9909 218.45 1.25656 222.926 0.338148 227.909C-0.580264 232.892 0.381057 238.035 3.03995 242.363Z" fill="#FFB8B8"/>
<path d="M188.701 388.11C169.678 414.447 170.358 458.509 175.666 506.733H265.606L269.517 497.707L274.731 506.733H359.458C359.458 506.733 352.94 384.242 341.209 380.374C329.478 376.506 188.701 388.11 188.701 388.11Z" fill="#2F2E41"/>
<path d="M265.607 112.948C290.803 112.948 311.229 92.743 311.229 67.8194C311.229 42.8957 290.803 22.6912 265.607 22.6912C240.41 22.6912 219.984 42.8957 219.984 67.8194C219.984 92.743 240.41 112.948 265.607 112.948Z" fill="#FFB8B8"/>
<path d="M298.581 124.656L307.502 141.571L369.21 168.781L352.99 324.055L346.163 340.134L349.851 354.098L340.958 364.403C349.885 372.393 351.019 380.756 346.163 389.407L317.746 395.846C317.746 395.846 159.743 409.744 173.059 385.531C187.608 359.076 191.313 280.944 159.194 239.192C131.925 203.745 152.86 157.75 152.86 157.75L217.542 138.629L241.333 124.656L298.581 124.656Z" fill="#3F3D56"/>
<path d="M285.861 1.71362C286.075 1.26493 286.42 0.889863 286.852 0.636593C287.283 0.383323 287.781 0.263409 288.282 0.292257C267.396 -0.943595 245.395 1.46445 227.922 12.8498C223.688 15.6081 219.697 18.8981 215.09 20.899C214.873 20.9957 214.685 21.1463 214.543 21.3363C214.402 21.5262 214.313 21.7491 214.285 21.9832C214.256 22.2173 214.289 22.4547 214.381 22.6723C214.473 22.8899 214.62 23.0804 214.808 23.2252L215.314 23.6176C215.514 23.7725 215.667 23.9785 215.756 24.2133C215.846 24.4481 215.868 24.7027 215.822 24.9494C215.775 25.1961 215.661 25.4254 215.492 25.6124C215.323 25.7995 215.105 25.937 214.863 26.0102C214.61 26.0865 214.384 26.2327 214.212 26.4316C214.04 26.6305 213.93 26.8738 213.893 27.1328C213.856 27.3919 213.895 27.6559 214.005 27.8938C214.115 28.1317 214.292 28.3335 214.514 28.4755L218.391 30.9544C218.587 31.077 218.748 31.2462 218.86 31.4465C218.972 31.6467 219.031 31.8715 219.032 32.1003C219.033 32.3291 218.977 32.5546 218.867 32.756C218.757 32.9574 218.598 33.1284 218.404 33.2531C218.076 33.4538 217.731 33.6267 217.373 33.7703C217.15 33.853 216.953 33.991 216.8 34.171C216.647 34.3511 216.544 34.5671 216.499 34.7982C216.455 35.0294 216.472 35.2678 216.548 35.4906C216.625 35.7134 216.757 35.9131 216.934 36.0703C218.613 37.5489 219.901 39.4113 220.686 41.4952C221.978 44.8191 222.21 48.4392 222.429 51.9939C223.764 46.8648 229.423 43.8456 234.769 43.5389C240.114 43.2321 245.327 44.9767 250.53 46.2308C261.86 48.9545 273.628 49.4022 285.137 47.5477C281.229 55.3055 284.525 64.5589 287.842 72.5813L298.581 68.0286C313.328 59.7942 303.055 94.6271 297.542 99.4091C308.799 103.27 338.264 60.4217 328.785 44.1684C323.854 35.7137 327.354 24.8092 317.661 16.7905C312.91 11.8433 303.424 14.0422 298.581 9.93037C296.674 8.31204 299.58 3.98243 296.96 3.03886C296.09 2.72546 286.005 1.39776 285.861 1.71362Z" fill="#2F2E41"/>
<path d="M208.583 142.997C200.212 179.761 178.741 265.599 156.957 283.551C155.575 284.841 153.919 285.809 152.109 286.382C75.5393 304.834 51.0048 257.767 51.0048 257.767C51.0048 257.767 71.5246 247.876 72.045 228.541L113.427 241.242L149.5 160.942L154.808 156.044L154.838 156.014L208.583 142.997Z" fill="#3F3D56"/>
<path d="M371.843 482.492C374.036 480.407 375.74 477.872 376.834 475.065C377.929 472.258 378.389 469.248 378.181 466.247C377.972 463.246 377.101 460.326 375.629 457.694C374.157 455.062 372.119 452.781 369.659 451.012L391.124 381.034L354.294 391.842L339.556 456.637C336.826 460.922 335.779 466.048 336.615 471.046C337.451 476.043 340.11 480.563 344.09 483.75C348.07 486.937 353.093 488.569 358.208 488.337C363.323 488.105 368.175 486.025 371.843 482.492Z" fill="#FFB8B8"/>
<path d="M352.197 164.866L369.21 168.781C369.21 168.781 439.531 304.119 422.585 329.907C405.64 355.694 384.881 441.07 384.881 441.07C384.881 441.07 354.177 435.032 342.445 419.56L363.928 318.302L341.769 233.204L352.197 164.866Z" fill="#3F3D56"/>
<path d="M29.4262 365.839L30.0371 147.869C30.0545 143.457 31.8404 139.233 35.0028 136.122C38.1653 133.011 42.4461 131.268 46.9061 131.275L213.324 131.731C217.784 131.749 222.055 133.515 225.2 136.643C228.345 139.771 230.107 144.006 230.1 148.418L229.489 366.388C229.471 370.8 227.685 375.024 224.523 378.135C221.361 381.246 217.08 382.989 212.62 382.982L46.2019 382.526C41.7419 382.508 37.4709 380.742 34.326 377.614C31.181 374.486 29.4189 370.251 29.4262 365.839Z" fill="#E6E6E6"/>
<path d="M42.376 300.038L42.7688 159.907C42.785 155.775 44.4575 151.819 47.4192 148.905C50.3809 145.992 54.3901 144.359 58.5671 144.366L201.589 144.758C205.766 144.774 209.766 146.429 212.712 149.358C215.657 152.288 217.308 156.254 217.301 160.386L216.757 354.35C216.741 358.481 215.068 362.438 212.106 365.352C209.145 368.265 205.135 369.897 200.958 369.89L112.359 369.647C93.7534 369.576 75.9362 362.207 62.8164 349.157C49.6966 336.107 42.3456 318.442 42.376 300.038Z" fill="white"/>
<path d="M185.201 205.92H73.6807C71.906 205.92 70.2041 205.223 68.9492 203.981C67.6944 202.74 66.9894 201.057 66.9894 199.301C66.9894 197.546 67.6944 195.862 68.9492 194.621C70.2041 193.38 71.906 192.682 73.6807 192.682H185.201C186.976 192.682 188.678 193.38 189.933 194.621C191.188 195.862 191.893 197.546 191.893 199.301C191.893 201.057 191.188 202.74 189.933 203.981C188.678 205.223 186.976 205.92 185.201 205.92Z" fill="#FF6D00"/>
<path d="M98.2152 175.4H73.6807C71.906 175.4 70.2041 174.703 68.9492 173.461C67.6944 172.22 66.9894 170.537 66.9894 168.781C66.9894 167.026 67.6944 165.342 68.9492 164.101C70.2041 162.86 71.906 162.162 73.6807 162.162H98.2152C99.9898 162.162 101.692 162.86 102.947 164.101C104.201 165.342 104.906 167.026 104.906 168.781C104.906 170.537 104.201 172.22 102.947 173.461C101.692 174.703 99.9898 175.4 98.2152 175.4Z" fill="#FF6D00"/>
<path d="M185.201 236.44H73.6807C71.906 236.44 70.2041 235.743 68.9492 234.501C67.6944 233.26 66.9894 231.577 66.9894 229.821C66.9894 228.066 67.6944 226.382 68.9492 225.141C70.2041 223.9 71.906 223.202 73.6807 223.202H185.201C186.976 223.202 188.678 223.9 189.933 225.141C191.188 226.382 191.893 228.066 191.893 229.821C191.893 231.577 191.188 233.26 189.933 234.501C188.678 235.743 186.976 236.44 185.201 236.44Z" fill="#FF6D00"/>
<path d="M185.201 266.96H73.6807C71.906 266.96 70.2041 266.262 68.9492 265.021C67.6944 263.78 66.9894 262.096 66.9894 260.341C66.9894 258.586 67.6944 256.902 68.9492 255.661C70.2041 254.42 71.906 253.722 73.6807 253.722H185.201C186.976 253.722 188.678 254.42 189.933 255.661C191.188 256.902 191.893 258.586 191.893 260.341C191.893 262.096 191.188 263.78 189.933 265.021C188.678 266.262 186.976 266.96 185.201 266.96Z" fill="#FF6D00"/>
<path d="M176.178 347.379C190.882 347.379 202.802 335.588 202.802 321.042C202.802 306.497 190.882 294.706 176.178 294.706C161.473 294.706 149.553 306.497 149.553 321.042C149.553 335.588 161.473 347.379 176.178 347.379Z" fill="#FF6D00"/>
<path d="M172.546 334.749C172.086 334.749 171.632 334.643 171.221 334.44C170.81 334.236 170.452 333.941 170.177 333.577L162.913 323.997C162.679 323.689 162.509 323.339 162.412 322.966C162.315 322.593 162.293 322.205 162.348 321.824C162.403 321.443 162.533 321.076 162.731 320.745C162.93 320.413 163.192 320.124 163.503 319.893C163.815 319.662 164.169 319.494 164.546 319.399C164.923 319.303 165.316 319.282 165.701 319.337C166.086 319.392 166.457 319.521 166.791 319.717C167.126 319.914 167.418 320.174 167.652 320.482L172.404 326.749L184.609 308.64C184.824 308.318 185.101 308.042 185.424 307.827C185.748 307.612 186.111 307.462 186.493 307.385C186.875 307.309 187.268 307.308 187.651 307.383C188.033 307.457 188.397 307.606 188.721 307.82C189.045 308.034 189.324 308.309 189.54 308.629C189.757 308.949 189.907 309.309 189.983 309.687C190.059 310.065 190.059 310.455 189.982 310.832C189.906 311.21 189.754 311.57 189.537 311.89L175.01 333.445C174.747 333.834 174.394 334.156 173.979 334.383C173.565 334.61 173.101 334.735 172.628 334.748C172.601 334.749 172.573 334.749 172.546 334.749Z" fill="white"/>
<path d="M119.404 80.5307C126.384 80.5307 132.043 74.9333 132.043 68.0285C132.043 61.1238 126.384 55.5264 119.404 55.5264C112.424 55.5264 106.765 61.1238 106.765 68.0285C106.765 74.9333 112.424 80.5307 119.404 80.5307Z" fill="#F2F2F2"/>
<path d="M73.3089 440.151C80.2893 440.151 85.9479 434.554 85.9479 427.649C85.9479 420.744 80.2893 415.147 73.3089 415.147C66.3286 415.147 60.6699 420.744 60.6699 427.649C60.6699 434.554 66.3286 440.151 73.3089 440.151Z" fill="#F2F2F2"/>
<path d="M364.006 129.069C370.986 129.069 376.645 123.471 376.645 116.566C376.645 109.662 370.986 104.064 364.006 104.064C357.026 104.064 351.367 109.662 351.367 116.566C351.367 123.471 357.026 129.069 364.006 129.069Z" fill="#F2F2F2"/>
<g clip-path="url(#clip1_15_418)">
<path fill-rule="evenodd" clip-rule="evenodd" d="M452.61 137.519V131.667H449.934V137.519H444.583V140.445H449.934V146.297H452.61V140.445H457.961V137.519H452.61ZM452.61 93.6302V87.7783H449.934V93.6302H444.583V96.5561H449.934V102.408H452.61V96.5561H457.961V93.6302H452.61ZM412.474 137.519V131.667H409.798V137.519H404.447V140.445H409.798V146.297H412.474V140.445H417.825V137.519H412.474ZM412.474 93.6302V87.7783H409.798V93.6302H404.447V96.5561H409.798V102.408H412.474V96.5561H417.825V93.6302H412.474Z" fill="#3F3D56"/>
</g>
<g clip-path="url(#clip2_15_418)">
<path fill-rule="evenodd" clip-rule="evenodd" d="M78.2427 494.905L78.215 489.053L75.5393 489.066L75.567 494.918L70.2156 494.942L70.2295 497.868L75.5809 497.843L75.6086 503.695L78.2843 503.683L78.2566 497.831L83.608 497.806L83.5941 494.88L78.2427 494.905ZM78.0349 451.016L78.0072 445.165L75.3315 445.177L75.3592 451.029L70.0078 451.054L70.0217 453.98L75.3731 453.955L75.4008 459.807L78.0765 459.794L78.0488 453.942L83.4002 453.917L83.3863 450.992L78.0349 451.016ZM38.1072 495.092L38.0795 489.24L35.4038 489.253L35.4315 495.104L30.0801 495.129L30.094 498.055L35.4454 498.03L35.4731 503.882L38.1488 503.87L38.1211 498.018L43.4725 497.993L43.4586 495.067L38.1072 495.092ZM37.8995 451.203L37.8718 445.352L35.1961 445.364L35.2238 451.216L29.8724 451.241L29.8862 454.167L35.2376 454.142L35.2653 459.994L37.941 459.981L37.9133 454.129L43.2647 454.104L43.2509 451.178L37.8995 451.203Z" fill="#3F3D56"/>
</g>
</g>
<defs>
<clipPath id="clip0_15_418">
<rect width="530" height="543" fill="white"/>
</clipPath>
<clipPath id="clip1_15_418">
<rect width="80.2719" height="87.7782" fill="white" transform="translate(404.447 87.7783)"/>
</clipPath>
<clipPath id="clip2_15_418">
<rect width="80.2718" height="87.7782" fill="white" transform="matrix(0.999989 -0.00465677 0.00473419 0.999989 29.8447 445.389)"/>
</clipPath>
</defs>
</svg>
