<svg width="81" height="89" viewBox="0 0 81 89" fill="none" xmlns="http://www.w3.org/2000/svg">
<g clip-path="url(#clip0_15_438)">
<path fill-rule="evenodd" clip-rule="evenodd" d="M48.6097 50.5193V44.6674H45.934V50.5193H40.5825V53.4452H45.934V59.2971H48.6097V53.4452H53.9612V50.5193H48.6097ZM48.6097 6.6302V0.77832H45.934V6.6302H40.5825V9.55614H45.934V15.408H48.6097V9.55614H53.9612V6.6302H48.6097ZM8.47378 50.5193V44.6674H5.79805V50.5193H0.446594V53.4452H5.79805V59.2971H8.47378V53.4452H13.8252V50.5193H8.47378ZM8.47378 6.6302V0.77832H5.79805V6.6302H0.446594V9.55614H5.79805V15.408H8.47378V9.55614H13.8252V6.6302H8.47378Z" fill="#3F3D56"/>
</g>
<defs>
<clipPath id="clip0_15_438">
<rect width="80.2719" height="87.7782" fill="white" transform="translate(0.446594 0.77832)"/>
</clipPath>
</defs>
</svg>
