<svg width="571" height="479" viewBox="0 0 571 479" fill="none" xmlns="http://www.w3.org/2000/svg">
<g clip-path="url(#clip0_1_155)">
<path d="M332.607 84.4421C343.308 84.4421 351.983 74.4359 351.983 62.0926C351.983 49.7494 343.308 39.7432 332.607 39.7432C321.905 39.7432 313.23 49.7494 313.23 62.0926C313.23 74.4359 321.905 84.4421 332.607 84.4421Z" fill="#F2F2F2"/>
<path d="M482.919 416.134C511.721 390.831 525.477 348.313 516.865 307.752C516.651 306.745 516.425 305.739 516.188 304.736C510.478 280.66 496.353 257.778 475.766 250.085C458.48 243.625 439.611 248.593 421.578 246.024C386.177 240.982 358.731 207.944 339.42 173.353C320.108 138.762 305.267 100.043 279.606 71.4657C237.308 24.3612 168.31 14.2196 115.867 44.8811C63.4243 75.5427 30.0187 143.568 31.4434 211.363C32.8681 279.159 67.7623 343.976 118.437 378.366C137.053 391 158.584 399.949 180.012 396.818C198.605 394.1 215.499 382.578 234.004 379.157C263.098 373.778 292.007 388.951 317.172 406.631C342.336 424.312 366.643 445.269 395.239 453.465C423.006 461.424 457.406 438.548 482.919 416.134Z" fill="#F2F2F2"/>
<path d="M441.538 46.3048C440.907 45.8193 440.268 45.3589 439.637 44.8902C421.386 31.4271 401.824 20.4898 381.356 12.3044L376.609 87.8217H346.522V1.28062C344.628 0.828618 342.719 0.401731 340.81 -4.57764e-05V87.8217H305.055C285.371 87.8217 266.493 78.8028 252.575 62.749C238.656 46.6953 230.837 24.9217 230.837 2.2182C228.921 2.69531 227.02 3.20582 225.118 3.74989V87.8217H195.996L191.475 15.8116C170.44 25.1163 150.47 37.3525 132.01 52.2477C131.691 52.4988 131.372 52.7583 131.06 53.0094C129.456 54.3068 127.874 55.6294 126.299 56.9686V345.068H212.128L210.611 320.836L202.266 187.789H370.332L361.986 320.836L360.47 345.068H445.348V49.2177C444.086 48.23 442.816 47.259 441.538 46.3048ZM225.118 165.817H200.887L196.409 94.4175H225.118V165.817ZM340.81 165.817H300.113V164.402C300.113 163.722 299.997 163.049 299.771 162.421C299.545 161.792 299.214 161.222 298.797 160.741C298.38 160.261 297.884 159.88 297.339 159.621C296.794 159.361 296.21 159.228 295.621 159.229H277.928C277.339 159.229 276.756 159.363 276.211 159.622C275.667 159.882 275.173 160.263 274.756 160.744C274.34 161.224 274.009 161.794 273.784 162.422C273.559 163.05 273.443 163.723 273.443 164.402V165.817H230.837V94.4175H340.81V165.817ZM346.522 165.817V94.4175H376.196L371.718 165.817H346.522Z" fill="#3F3D56"/>
<path d="M-2.28882e-05 363.517C6.30437 372.133 13.1233 380.23 20.4068 387.749L550.593 388.586C557.877 381.067 564.696 372.97 571 364.354L-2.28882e-05 363.517Z" fill="#3F3D56"/>
<path d="M359.537 285.924V357.661C359.537 358.576 359.852 359.452 360.413 360.098C360.973 360.745 361.733 361.108 362.526 361.109H454.694C455.486 361.108 456.246 360.745 456.807 360.098C457.367 359.452 457.682 358.576 457.683 357.661V285.924C457.681 285.011 457.365 284.135 456.805 283.49C456.245 282.844 455.486 282.481 454.694 282.48H362.526C361.734 282.481 360.975 282.844 360.414 283.49C359.854 284.135 359.538 285.011 359.537 285.924V285.924Z" fill="#3F3D56"/>
<path d="M361.699 286.817V356.776C361.699 357.265 361.868 357.733 362.167 358.078C362.467 358.424 362.873 358.618 363.296 358.619H453.926C454.35 358.618 454.756 358.424 455.055 358.078C455.355 357.733 455.523 357.265 455.524 356.776V286.817C455.524 286.328 455.356 285.858 455.056 285.512C454.757 285.166 454.35 284.971 453.926 284.97H363.296C362.872 284.971 362.466 285.166 362.166 285.512C361.867 285.858 361.699 286.328 361.699 286.817V286.817Z" fill="#FF6D00"/>
<path d="M357.609 371.652C357.778 371.896 357.992 372.093 358.237 372.228C358.481 372.363 358.748 372.432 359.019 372.43H457.709C457.979 372.43 458.246 372.36 458.489 372.226C458.733 372.092 458.948 371.897 459.118 371.655C459.288 371.413 459.409 371.131 459.472 370.828C459.536 370.526 459.54 370.211 459.485 369.906L457.953 361.513C457.889 361.171 457.752 360.852 457.555 360.586C457.357 360.321 457.105 360.116 456.822 359.991C456.617 359.898 456.398 359.851 456.177 359.851H360.545C360.325 359.851 360.106 359.898 359.901 359.991C359.617 360.116 359.365 360.321 359.168 360.586C358.97 360.852 358.833 361.171 358.77 361.513L357.238 369.906C357.184 370.211 357.189 370.525 357.253 370.827C357.317 371.129 357.439 371.411 357.609 371.652V371.652Z" fill="#2F2E41"/>
<path d="M452.791 363.466H455.122C455.318 363.466 455.477 363.283 455.477 363.058V361.771C455.477 361.546 455.318 361.363 455.122 361.363H452.791C452.596 361.363 452.437 361.546 452.437 361.771V363.058C452.437 363.283 452.596 363.466 452.791 363.466Z" fill="#3F3D56"/>
<path d="M446.712 363.466H449.043C449.239 363.466 449.397 363.283 449.397 363.058V361.771C449.397 361.546 449.239 361.363 449.043 361.363H446.712C446.516 361.363 446.358 361.546 446.358 361.771V363.058C446.358 363.283 446.516 363.466 446.712 363.466Z" fill="#3F3D56"/>
<path d="M440.633 363.466H442.964C443.159 363.466 443.318 363.283 443.318 363.058V361.771C443.318 361.546 443.159 361.363 442.964 361.363H440.633C440.437 361.363 440.278 361.546 440.278 361.771V363.058C440.278 363.283 440.437 363.466 440.633 363.466Z" fill="#3F3D56"/>
<path d="M434.554 363.466H436.885C437.08 363.466 437.239 363.283 437.239 363.058V361.771C437.239 361.546 437.08 361.363 436.885 361.363H434.554C434.358 361.363 434.199 361.546 434.199 361.771V363.058C434.199 363.283 434.358 363.466 434.554 363.466Z" fill="#3F3D56"/>
<path d="M428.474 363.466H430.805C431.001 363.466 431.16 363.283 431.16 363.058V361.771C431.16 361.546 431.001 361.363 430.805 361.363H428.474C428.279 361.363 428.12 361.546 428.12 361.771V363.058C428.12 363.283 428.279 363.466 428.474 363.466Z" fill="#3F3D56"/>
<path d="M422.395 363.466H424.726C424.922 363.466 425.08 363.283 425.08 363.058V361.771C425.08 361.546 424.922 361.363 424.726 361.363H422.395C422.199 361.363 422.041 361.546 422.041 361.771V363.058C422.041 363.283 422.199 363.466 422.395 363.466Z" fill="#3F3D56"/>
<path d="M416.316 363.466H418.647C418.843 363.466 419.001 363.283 419.001 363.058V361.771C419.001 361.546 418.843 361.363 418.647 361.363H416.316C416.12 361.363 415.962 361.546 415.962 361.771V363.058C415.962 363.283 416.12 363.466 416.316 363.466Z" fill="#3F3D56"/>
<path d="M410.237 363.466H412.568C412.763 363.466 412.922 363.283 412.922 363.058V361.771C412.922 361.546 412.763 361.363 412.568 361.363H410.237C410.041 361.363 409.882 361.546 409.882 361.771V363.058C409.882 363.283 410.041 363.466 410.237 363.466Z" fill="#3F3D56"/>
<path d="M404.157 363.466H406.488C406.684 363.466 406.843 363.283 406.843 363.058V361.771C406.843 361.546 406.684 361.363 406.488 361.363H404.157C403.962 361.363 403.803 361.546 403.803 361.771V363.058C403.803 363.283 403.962 363.466 404.157 363.466Z" fill="#3F3D56"/>
<path d="M398.078 363.466H400.409C400.605 363.466 400.764 363.283 400.764 363.058V361.771C400.764 361.546 400.605 361.363 400.409 361.363H398.078C397.883 361.363 397.724 361.546 397.724 361.771V363.058C397.724 363.283 397.883 363.466 398.078 363.466Z" fill="#3F3D56"/>
<path d="M391.999 363.466H394.33C394.526 363.466 394.684 363.283 394.684 363.058V361.771C394.684 361.546 394.526 361.363 394.33 361.363H391.999C391.803 361.363 391.645 361.546 391.645 361.771V363.058C391.645 363.283 391.803 363.466 391.999 363.466Z" fill="#3F3D56"/>
<path d="M385.92 363.466H388.251C388.446 363.466 388.605 363.283 388.605 363.058V361.771C388.605 361.546 388.446 361.363 388.251 361.363H385.92C385.724 361.363 385.565 361.546 385.565 361.771V363.058C385.565 363.283 385.724 363.466 385.92 363.466Z" fill="#3F3D56"/>
<path d="M379.84 363.466H382.171C382.367 363.466 382.526 363.283 382.526 363.058V361.771C382.526 361.546 382.367 361.363 382.171 361.363H379.84C379.645 361.363 379.486 361.546 379.486 361.771V363.058C379.486 363.283 379.645 363.466 379.84 363.466Z" fill="#3F3D56"/>
<path d="M373.761 363.466H376.092C376.288 363.466 376.447 363.283 376.447 363.058V361.771C376.447 361.546 376.288 361.363 376.092 361.363H373.761C373.566 361.363 373.407 361.546 373.407 361.771V363.058C373.407 363.283 373.566 363.466 373.761 363.466Z" fill="#3F3D56"/>
<path d="M367.682 363.466H370.013C370.209 363.466 370.367 363.283 370.367 363.058V361.771C370.367 361.546 370.209 361.363 370.013 361.363H367.682C367.486 361.363 367.328 361.546 367.328 361.771V363.058C367.328 363.283 367.486 363.466 367.682 363.466Z" fill="#3F3D56"/>
<path d="M361.603 363.466H363.934C364.13 363.466 364.288 363.283 364.288 363.058V361.771C364.288 361.546 364.13 361.363 363.934 361.363H361.603C361.407 361.363 361.249 361.546 361.249 361.771V363.058C361.249 363.283 361.407 363.466 361.603 363.466Z" fill="#3F3D56"/>
<path d="M452.863 366.972H455.194C455.39 366.972 455.548 366.789 455.548 366.564V365.277C455.548 365.052 455.39 364.869 455.194 364.869H452.863C452.667 364.869 452.509 365.052 452.509 365.277V366.564C452.509 366.789 452.667 366.972 452.863 366.972Z" fill="#3F3D56"/>
<path d="M446.784 366.972H449.115C449.311 366.972 449.469 366.789 449.469 366.564V365.277C449.469 365.052 449.311 364.869 449.115 364.869H446.784C446.588 364.869 446.43 365.052 446.43 365.277V366.564C446.43 366.789 446.588 366.972 446.784 366.972Z" fill="#3F3D56"/>
<path d="M440.705 366.972H443.036C443.231 366.972 443.39 366.789 443.39 366.564V365.277C443.39 365.052 443.231 364.869 443.036 364.869H440.705C440.509 364.869 440.35 365.052 440.35 365.277V366.564C440.35 366.789 440.509 366.972 440.705 366.972Z" fill="#3F3D56"/>
<path d="M434.625 366.972H436.956C437.152 366.972 437.311 366.789 437.311 366.564V365.277C437.311 365.052 437.152 364.869 436.956 364.869H434.625C434.43 364.869 434.271 365.052 434.271 365.277V366.564C434.271 366.789 434.43 366.972 434.625 366.972Z" fill="#3F3D56"/>
<path d="M428.546 366.972H430.877C431.073 366.972 431.231 366.789 431.231 366.564V365.277C431.231 365.052 431.073 364.869 430.877 364.869H428.546C428.35 364.869 428.192 365.052 428.192 365.277V366.564C428.192 366.789 428.35 366.972 428.546 366.972Z" fill="#3F3D56"/>
<path d="M422.467 366.972H424.798C424.994 366.972 425.152 366.789 425.152 366.564V365.277C425.152 365.052 424.994 364.869 424.798 364.869H422.467C422.271 364.869 422.113 365.052 422.113 365.277V366.564C422.113 366.789 422.271 366.972 422.467 366.972Z" fill="#3F3D56"/>
<path d="M416.388 366.972H418.719C418.914 366.972 419.073 366.789 419.073 366.564V365.277C419.073 365.052 418.914 364.869 418.719 364.869H416.388C416.192 364.869 416.033 365.052 416.033 365.277V366.564C416.033 366.789 416.192 366.972 416.388 366.972Z" fill="#3F3D56"/>
<path d="M410.308 366.972H412.639C412.835 366.972 412.994 366.789 412.994 366.564V365.277C412.994 365.052 412.835 364.869 412.639 364.869H410.308C410.113 364.869 409.954 365.052 409.954 365.277V366.564C409.954 366.789 410.113 366.972 410.308 366.972Z" fill="#3F3D56"/>
<path d="M404.229 366.972H406.56C406.756 366.972 406.915 366.789 406.915 366.564V365.277C406.915 365.052 406.756 364.869 406.56 364.869H404.229C404.034 364.869 403.875 365.052 403.875 365.277V366.564C403.875 366.789 404.034 366.972 404.229 366.972Z" fill="#3F3D56"/>
<path d="M398.15 366.972H400.481C400.677 366.972 400.835 366.789 400.835 366.564V365.277C400.835 365.052 400.677 364.869 400.481 364.869H398.15C397.954 364.869 397.796 365.052 397.796 365.277V366.564C397.796 366.789 397.954 366.972 398.15 366.972Z" fill="#3F3D56"/>
<path d="M392.071 366.972H394.402C394.597 366.972 394.756 366.789 394.756 366.564V365.277C394.756 365.052 394.597 364.869 394.402 364.869H392.071C391.875 364.869 391.716 365.052 391.716 365.277V366.564C391.716 366.789 391.875 366.972 392.071 366.972Z" fill="#3F3D56"/>
<path d="M385.992 366.972H388.323C388.518 366.972 388.677 366.789 388.677 366.564V365.277C388.677 365.052 388.518 364.869 388.323 364.869H385.992C385.796 364.869 385.637 365.052 385.637 365.277V366.564C385.637 366.789 385.796 366.972 385.992 366.972Z" fill="#3F3D56"/>
<path d="M379.912 366.972H382.243C382.439 366.972 382.598 366.789 382.598 366.564V365.277C382.598 365.052 382.439 364.869 382.243 364.869H379.912C379.717 364.869 379.558 365.052 379.558 365.277V366.564C379.558 366.789 379.717 366.972 379.912 366.972Z" fill="#3F3D56"/>
<path d="M373.833 366.972H376.164C376.36 366.972 376.518 366.789 376.518 366.564V365.277C376.518 365.052 376.36 364.869 376.164 364.869H373.833C373.637 364.869 373.479 365.052 373.479 365.277V366.564C373.479 366.789 373.637 366.972 373.833 366.972Z" fill="#3F3D56"/>
<path d="M367.754 366.972H370.085C370.281 366.972 370.439 366.789 370.439 366.564V365.277C370.439 365.052 370.281 364.869 370.085 364.869H367.754C367.558 364.869 367.4 365.052 367.4 365.277V366.564C367.4 366.789 367.558 366.972 367.754 366.972Z" fill="#3F3D56"/>
<path d="M361.675 366.972H364.006C364.201 366.972 364.36 366.789 364.36 366.564V365.277C364.36 365.052 364.201 364.869 364.006 364.869H361.675C361.479 364.869 361.32 365.052 361.32 365.277V366.564C361.32 366.789 361.479 366.972 361.675 366.972Z" fill="#3F3D56"/>
<path d="M402.405 371.179H426.014C426.209 371.179 426.368 370.996 426.368 370.771V369.484C426.368 369.259 426.209 369.076 426.014 369.076H402.405C402.21 369.076 402.051 369.259 402.051 369.484V370.771C402.051 370.996 402.21 371.179 402.405 371.179Z" fill="#3F3D56"/>
<path d="M377.393 300.276H375.329C374.704 300.276 374.197 300.861 374.197 301.582C374.197 302.304 374.704 302.889 375.329 302.889H377.393C378.019 302.889 378.526 302.304 378.526 301.582C378.526 300.861 378.019 300.276 377.393 300.276Z" fill="white"/>
<path d="M400.995 300.276H398.932C398.306 300.276 397.799 300.861 397.799 301.582C397.799 302.304 398.306 302.889 398.932 302.889H400.995C401.621 302.889 402.128 302.304 402.128 301.582C402.128 300.861 401.621 300.276 400.995 300.276Z" fill="white"/>
<path d="M407.683 300.276H405.619C404.993 300.276 404.486 300.861 404.486 301.582C404.486 302.304 404.993 302.889 405.619 302.889H407.683C408.308 302.889 408.815 302.304 408.815 301.582C408.815 300.861 408.308 300.276 407.683 300.276Z" fill="white"/>
<path d="M394.575 300.058H381.749C381.124 300.058 380.616 300.643 380.616 301.364C380.616 302.086 381.124 302.671 381.749 302.671H394.575C395.201 302.671 395.708 302.086 395.708 301.364C395.708 300.643 395.201 300.058 394.575 300.058Z" fill="white"/>
<path d="M426.045 300.058H413.219C412.593 300.058 412.086 300.643 412.086 301.364C412.086 302.086 412.593 302.671 413.219 302.671H426.045C426.671 302.671 427.178 302.086 427.178 301.364C427.178 300.643 426.671 300.058 426.045 300.058Z" fill="white"/>
<path d="M383.687 306.174H381.623C380.998 306.174 380.49 306.759 380.49 307.481C380.49 308.202 380.998 308.787 381.623 308.787H383.687C384.313 308.787 384.82 308.202 384.82 307.481C384.82 306.759 384.313 306.174 383.687 306.174Z" fill="white"/>
<path d="M407.289 306.174H405.226C404.6 306.174 404.093 306.759 404.093 307.481C404.093 308.202 404.6 308.787 405.226 308.787H407.289C407.915 308.787 408.422 308.202 408.422 307.481C408.422 306.759 407.915 306.174 407.289 306.174Z" fill="white"/>
<path d="M413.976 306.174H411.913C411.287 306.174 410.78 306.759 410.78 307.481C410.78 308.202 411.287 308.787 411.913 308.787H413.976C414.602 308.787 415.109 308.202 415.109 307.481C415.109 306.759 414.602 306.174 413.976 306.174Z" fill="white"/>
<path d="M400.869 305.956H388.043C387.418 305.956 386.91 306.541 386.91 307.263C386.91 307.984 387.418 308.569 388.043 308.569H400.869C401.495 308.569 402.002 307.984 402.002 307.263C402.002 306.541 401.495 305.956 400.869 305.956Z" fill="white"/>
<path d="M432.339 305.956H419.513C418.887 305.956 418.38 306.541 418.38 307.263C418.38 307.984 418.887 308.569 419.513 308.569H432.339C432.964 308.569 433.472 307.984 433.472 307.263C433.472 306.541 432.964 305.956 432.339 305.956Z" fill="white"/>
<path d="M389.981 312.072H387.917C387.292 312.072 386.784 312.657 386.784 313.379C386.784 314.101 387.292 314.686 387.917 314.686H389.981C390.607 314.686 391.114 314.101 391.114 313.379C391.114 312.657 390.607 312.072 389.981 312.072Z" fill="white"/>
<path d="M413.583 312.072H411.519C410.894 312.072 410.387 312.657 410.387 313.379C410.387 314.101 410.894 314.686 411.519 314.686H413.583C414.209 314.686 414.716 314.101 414.716 313.379C414.716 312.657 414.209 312.072 413.583 312.072Z" fill="white"/>
<path d="M420.27 312.072H418.207C417.581 312.072 417.074 312.657 417.074 313.379C417.074 314.101 417.581 314.686 418.207 314.686H420.27C420.896 314.686 421.403 314.101 421.403 313.379C421.403 312.657 420.896 312.072 420.27 312.072Z" fill="white"/>
<path d="M407.163 311.854H394.337C393.711 311.854 393.204 312.439 393.204 313.161C393.204 313.883 393.711 314.468 394.337 314.468H407.163C407.789 314.468 408.296 313.883 408.296 313.161C408.296 312.439 407.789 311.854 407.163 311.854Z" fill="white"/>
<path d="M438.633 311.854H425.807C425.181 311.854 424.674 312.439 424.674 313.161C424.674 313.883 425.181 314.468 425.807 314.468H438.633C439.258 314.468 439.766 313.883 439.766 313.161C439.766 312.439 439.258 311.854 438.633 311.854Z" fill="white"/>
<path d="M396.275 317.971H394.211C393.586 317.971 393.078 318.556 393.078 319.277C393.078 319.999 393.586 320.584 394.211 320.584H396.275C396.901 320.584 397.408 319.999 397.408 319.277C397.408 318.556 396.901 317.971 396.275 317.971Z" fill="white"/>
<path d="M419.877 317.971H417.813C417.188 317.971 416.68 318.556 416.68 319.277C416.68 319.999 417.188 320.584 417.813 320.584H419.877C420.503 320.584 421.01 319.999 421.01 319.277C421.01 318.556 420.503 317.971 419.877 317.971Z" fill="white"/>
<path d="M426.564 317.971H424.501C423.875 317.971 423.368 318.556 423.368 319.277C423.368 319.999 423.875 320.584 424.501 320.584H426.564C427.19 320.584 427.697 319.999 427.697 319.277C427.697 318.556 427.19 317.971 426.564 317.971Z" fill="white"/>
<path d="M413.457 317.753H400.631C400.005 317.753 399.498 318.338 399.498 319.059C399.498 319.781 400.005 320.366 400.631 320.366H413.457C414.083 320.366 414.59 319.781 414.59 319.059C414.59 318.338 414.083 317.753 413.457 317.753Z" fill="white"/>
<path d="M400.995 341.425H398.932C398.306 341.425 397.799 342.01 397.799 342.731C397.799 343.453 398.306 344.038 398.932 344.038H400.995C401.621 344.038 402.128 343.453 402.128 342.731C402.128 342.01 401.621 341.425 400.995 341.425Z" fill="white"/>
<path d="M407.683 341.425H405.619C404.993 341.425 404.486 342.01 404.486 342.731C404.486 343.453 404.993 344.038 405.619 344.038H407.683C408.308 344.038 408.815 343.453 408.815 342.731C408.815 342.01 408.308 341.425 407.683 341.425Z" fill="white"/>
<path d="M426.045 341.642H413.219C412.593 341.642 412.086 342.228 412.086 342.949C412.086 343.671 412.593 344.256 413.219 344.256H426.045C426.671 344.256 427.178 343.671 427.178 342.949C427.178 342.228 426.671 341.642 426.045 341.642Z" fill="white"/>
<path d="M377.393 341.425H375.329C374.704 341.425 374.197 342.01 374.197 342.731C374.197 343.453 374.704 344.038 375.329 344.038H377.393C378.019 344.038 378.526 343.453 378.526 342.731C378.526 342.01 378.019 341.425 377.393 341.425Z" fill="white"/>
<path d="M394.575 341.642H381.749C381.124 341.642 380.616 342.228 380.616 342.949C380.616 343.671 381.124 344.256 381.749 344.256H394.575C395.201 344.256 395.708 343.671 395.708 342.949C395.708 342.228 395.201 341.642 394.575 341.642Z" fill="white"/>
<path d="M383.687 335.526H381.623C380.998 335.526 380.49 336.111 380.49 336.833C380.49 337.555 380.998 338.14 381.623 338.14H383.687C384.313 338.14 384.82 337.555 384.82 336.833C384.82 336.111 384.313 335.526 383.687 335.526Z" fill="white"/>
<path d="M407.289 335.526H405.226C404.6 335.526 404.093 336.111 404.093 336.833C404.093 337.555 404.6 338.14 405.226 338.14H407.289C407.915 338.14 408.422 337.555 408.422 336.833C408.422 336.111 407.915 335.526 407.289 335.526Z" fill="white"/>
<path d="M413.976 335.526H411.913C411.287 335.526 410.78 336.111 410.78 336.833C410.78 337.555 411.287 338.14 411.913 338.14H413.976C414.602 338.14 415.109 337.555 415.109 336.833C415.109 336.111 414.602 335.526 413.976 335.526Z" fill="white"/>
<path d="M400.869 335.744H388.043C387.418 335.744 386.91 336.329 386.91 337.051C386.91 337.773 387.418 338.358 388.043 338.358H400.869C401.495 338.358 402.002 337.773 402.002 337.051C402.002 336.329 401.495 335.744 400.869 335.744Z" fill="white"/>
<path d="M389.981 329.628H387.917C387.292 329.628 386.784 330.213 386.784 330.935C386.784 331.656 387.292 332.241 387.917 332.241H389.981C390.607 332.241 391.114 331.656 391.114 330.935C391.114 330.213 390.607 329.628 389.981 329.628Z" fill="white"/>
<path d="M413.583 329.628H411.519C410.894 329.628 410.387 330.213 410.387 330.935C410.387 331.656 410.894 332.241 411.519 332.241H413.583C414.209 332.241 414.716 331.656 414.716 330.935C414.716 330.213 414.209 329.628 413.583 329.628Z" fill="white"/>
<path d="M420.27 329.628H418.207C417.581 329.628 417.074 330.213 417.074 330.935C417.074 331.656 417.581 332.241 418.207 332.241H420.27C420.896 332.241 421.403 331.656 421.403 330.935C421.403 330.213 420.896 329.628 420.27 329.628Z" fill="white"/>
<path d="M407.163 329.846H394.337C393.711 329.846 393.204 330.431 393.204 331.153C393.204 331.874 393.711 332.459 394.337 332.459H407.163C407.789 332.459 408.296 331.874 408.296 331.153C408.296 330.431 407.789 329.846 407.163 329.846Z" fill="white"/>
<path d="M396.275 323.73H394.211C393.586 323.73 393.078 324.315 393.078 325.036C393.078 325.758 393.586 326.343 394.211 326.343H396.275C396.901 326.343 397.408 325.758 397.408 325.036C397.408 324.315 396.901 323.73 396.275 323.73Z" fill="white"/>
<path d="M419.877 323.73H417.813C417.188 323.73 416.68 324.315 416.68 325.036C416.68 325.758 417.188 326.343 417.813 326.343H419.877C420.503 326.343 421.01 325.758 421.01 325.036C421.01 324.315 420.503 323.73 419.877 323.73Z" fill="white"/>
<path d="M426.564 323.73H424.501C423.875 323.73 423.368 324.315 423.368 325.036C423.368 325.758 423.875 326.343 424.501 326.343H426.564C427.19 326.343 427.697 325.758 427.697 325.036C427.697 324.315 427.19 323.73 426.564 323.73Z" fill="white"/>
<path d="M413.457 323.948H400.631C400.005 323.948 399.498 324.533 399.498 325.254C399.498 325.976 400.005 326.561 400.631 326.561H413.457C414.083 326.561 414.59 325.976 414.59 325.254C414.59 324.533 414.083 323.948 413.457 323.948Z" fill="white"/>
<path d="M366.421 410.55L356.734 392.888L387.142 364.928L399.694 348.89C401.324 346.806 403.4 345.253 405.715 344.384C408.029 343.516 410.5 343.364 412.882 343.942C415.263 344.521 417.471 345.81 419.285 347.681C421.099 349.552 422.456 351.94 423.219 354.605C424.351 358.555 424.108 362.857 422.541 366.604C420.974 370.35 418.207 373.248 414.823 374.686L394.976 383.12L366.421 410.55Z" fill="#FFB6B6"/>
<path d="M139.111 282.483V368.33H191.253V282.483C191.253 281.866 191.083 281.264 190.765 280.767C190.448 280.27 190.001 279.903 189.489 279.721C189.248 279.629 188.995 279.584 188.742 279.587H141.629C141.299 279.587 140.971 279.661 140.666 279.806C140.361 279.951 140.083 280.164 139.849 280.433C139.615 280.702 139.43 281.022 139.303 281.374C139.176 281.725 139.111 282.102 139.111 282.483V282.483ZM159.459 311.981C159.473 310.288 160.065 308.67 161.108 307.479C162.15 306.288 163.558 305.62 165.026 305.62C166.493 305.62 167.901 306.288 168.943 307.479C169.986 308.67 170.578 310.288 170.592 311.981V321.941C170.584 323.638 169.994 325.263 168.951 326.46C167.908 327.657 166.497 328.329 165.026 328.329C163.554 328.329 162.143 327.657 161.1 326.46C160.057 325.263 159.467 323.638 159.459 321.941V311.981Z" fill="#2F2E41"/>
<path d="M138.951 365.584V373.863C138.952 374.291 139.1 374.702 139.362 375.006C139.624 375.31 139.98 375.483 140.352 375.486H190.012C190.384 375.484 190.74 375.312 191.003 375.008C191.265 374.704 191.412 374.292 191.412 373.863V365.584H138.951Z" fill="#3F3D56"/>
<path d="M57.084 153.145V309.888C57.0854 311.885 57.774 313.801 58.9985 315.213C60.2231 316.625 61.8836 317.42 63.6154 317.421H264.999C266.731 317.42 268.391 316.625 269.616 315.213C270.84 313.801 271.529 311.885 271.53 309.888V153.145C271.526 151.149 270.836 149.236 269.612 147.826C268.388 146.416 266.729 145.622 264.999 145.62H63.6154C61.8851 145.622 60.2262 146.416 59.002 147.826C57.7778 149.237 57.0881 151.149 57.084 153.145Z" fill="#3F3D56"/>
<path d="M61.8084 155.095V307.954C61.81 309.022 62.1782 310.045 62.8325 310.799C63.4868 311.554 64.3737 311.979 65.299 311.981H263.322C264.248 311.979 265.135 311.554 265.789 310.799C266.443 310.045 266.811 309.022 266.813 307.954V155.095C266.813 154.026 266.445 153.002 265.791 152.245C265.137 151.489 264.249 151.063 263.322 151.06H65.299C64.3726 151.063 63.4848 151.489 62.8304 152.245C62.176 153.002 61.8085 154.026 61.8084 155.095Z" fill="white"/>
<path d="M98.5581 374.926C98.7597 375.217 99.0159 375.452 99.3075 375.613C99.5991 375.774 99.9185 375.857 100.242 375.855H218.053C218.375 375.854 218.693 375.771 218.984 375.611C219.275 375.451 219.531 375.218 219.734 374.929C219.937 374.641 220.081 374.304 220.157 373.942C220.233 373.581 220.238 373.205 220.172 372.841L218.343 362.822C218.267 362.413 218.104 362.033 217.868 361.716C217.633 361.399 217.332 361.155 216.993 361.006C216.748 360.895 216.487 360.838 216.224 360.838H102.063C101.8 360.838 101.539 360.895 101.294 361.006C100.956 361.155 100.655 361.399 100.419 361.716C100.183 362.033 100.02 362.413 99.9442 362.822L98.1155 372.841C98.0504 373.205 98.0564 373.581 98.1329 373.941C98.2095 374.302 98.3547 374.638 98.5581 374.926Z" fill="#2F2E41"/>
<path d="M256.896 172.118H71.6062C71.4136 172.113 71.2304 172.021 71.0957 171.862C70.961 171.703 70.8856 171.49 70.8856 171.268C70.8856 171.045 70.961 170.832 71.0957 170.673C71.2304 170.514 71.4136 170.423 71.6062 170.418H256.896C257.089 170.423 257.272 170.514 257.406 170.673C257.541 170.832 257.617 171.045 257.617 171.268C257.617 171.49 257.541 171.703 257.406 171.862C257.272 172.021 257.089 172.113 256.896 172.118V172.118Z" fill="#3F3D56"/>
<path d="M84.2191 166.078C86.604 166.078 88.5374 163.799 88.5374 160.987C88.5374 158.175 86.604 155.895 84.2191 155.895C81.8342 155.895 79.9009 158.175 79.9009 160.987C79.9009 163.799 81.8342 166.078 84.2191 166.078Z" fill="#3F3D56"/>
<path d="M99.1368 166.078C101.522 166.078 103.455 163.799 103.455 160.987C103.455 158.175 101.522 155.895 99.1368 155.895C96.7519 155.895 94.8185 158.175 94.8185 160.987C94.8185 163.799 96.7519 166.078 99.1368 166.078Z" fill="#3F3D56"/>
<path d="M114.054 166.078C116.439 166.078 118.373 163.799 118.373 160.987C118.373 158.175 116.439 155.895 114.054 155.895C111.669 155.895 109.736 158.175 109.736 160.987C109.736 163.799 111.669 166.078 114.054 166.078Z" fill="#3F3D56"/>
<path d="M247.913 157.154H237.318C237.108 157.16 236.909 157.26 236.763 157.433C236.616 157.605 236.534 157.837 236.534 158.079C236.534 158.321 236.616 158.553 236.763 158.726C236.909 158.898 237.108 158.998 237.318 159.004H247.913C248.124 159.001 248.325 158.902 248.473 158.729C248.621 158.555 248.704 158.322 248.704 158.079C248.704 157.836 248.621 157.603 248.473 157.43C248.325 157.257 248.124 157.158 247.913 157.154Z" fill="#3F3D56"/>
<path d="M247.913 160.628H237.318C237.108 160.633 236.909 160.733 236.762 160.906C236.615 161.079 236.533 161.311 236.533 161.553C236.533 161.795 236.615 162.027 236.762 162.2C236.909 162.373 237.108 162.472 237.318 162.478H247.913C248.124 162.475 248.326 162.376 248.474 162.203C248.622 162.03 248.705 161.796 248.705 161.553C248.705 161.309 248.622 161.076 248.474 160.903C248.326 160.73 248.124 160.631 247.913 160.628V160.628Z" fill="#3F3D56"/>
<path d="M247.913 164.101H237.318C237.108 164.107 236.909 164.207 236.763 164.38C236.616 164.553 236.534 164.785 236.534 165.026C236.534 165.268 236.616 165.5 236.763 165.673C236.909 165.846 237.108 165.946 237.318 165.951H247.913C248.124 165.948 248.325 165.849 248.473 165.676C248.621 165.503 248.704 165.269 248.704 165.026C248.704 164.783 248.621 164.55 248.473 164.377C248.325 164.204 248.124 164.105 247.913 164.101V164.101Z" fill="#3F3D56"/>
<path d="M503.347 369.217C503.666 370.291 504.273 371.22 505.079 371.872C505.885 372.523 506.85 372.863 507.834 372.843L527.059 372.272C528.05 372.25 529.009 371.858 529.791 371.155C530.574 370.453 531.138 369.477 531.399 368.374L534.12 334.819C535.085 335.324 536.136 335.573 537.196 335.548C538.116 335.522 539.023 335.286 539.864 334.855C540.706 334.424 541.466 333.807 542.1 333.037C542.735 332.267 543.232 331.361 543.562 330.37C543.893 329.379 544.052 328.323 544.029 327.261C544.006 326.199 543.801 325.153 543.428 324.183C543.054 323.212 542.518 322.336 541.851 321.604C541.184 320.872 540.398 320.299 539.539 319.917C538.68 319.536 537.764 319.353 536.844 319.38C536.42 319.378 535.998 319.429 535.584 319.531C535.133 318.969 534.586 318.522 533.977 318.219C533.367 317.915 532.71 317.763 532.047 317.771L502.474 318.651C502.228 318.662 501.984 318.697 501.744 318.756C501.096 318.895 500.481 319.193 499.94 319.63C499.4 320.067 498.947 320.632 498.612 321.287C498.277 321.942 498.067 322.673 497.998 323.43C497.928 324.186 498 324.952 498.208 325.674L503.347 369.217ZM534.678 332.541L536.614 324.545C536.834 323.621 536.839 322.647 536.629 321.721C536.723 321.72 536.805 321.669 536.899 321.669C538.227 321.637 539.511 322.214 540.47 323.272C541.429 324.331 541.986 325.785 542.017 327.316C542.048 328.847 541.551 330.33 540.636 331.439C539.721 332.549 538.461 333.194 537.134 333.234C536.276 333.265 535.427 333.025 534.678 332.541Z" fill="#2F2E41"/>
<path d="M501.744 318.756C502.374 322.911 509.458 325.832 517.975 325.324C525.807 324.908 532.212 321.736 533.385 317.976C532.951 317.828 532.499 317.759 532.046 317.771L502.474 318.651C502.228 318.662 501.984 318.697 501.744 318.756V318.756Z" fill="#3F3D56"/>
<path d="M519.536 350.779C519.575 350.768 519.612 350.749 519.646 350.723L523.821 347.571C523.871 347.533 523.913 347.481 523.941 347.42C523.97 347.359 523.985 347.291 523.985 347.221C523.985 347.152 523.97 347.084 523.941 347.022C523.913 346.961 523.871 346.909 523.821 346.871L519.481 343.593C519.442 343.563 519.397 343.542 519.35 343.531C519.303 343.521 519.255 343.521 519.208 343.532C519.161 343.543 519.117 343.565 519.077 343.596C519.038 343.627 519.004 343.666 518.978 343.712C518.952 343.759 518.934 343.81 518.925 343.864C518.916 343.918 518.917 343.974 518.926 344.028C518.936 344.082 518.955 344.133 518.982 344.178C519.009 344.224 519.044 344.263 519.084 344.293L522.96 347.221L519.248 350.023C519.177 350.077 519.124 350.159 519.099 350.254C519.075 350.349 519.08 350.451 519.115 350.542C519.149 350.632 519.211 350.706 519.288 350.749C519.365 350.793 519.453 350.803 519.536 350.779H519.536Z" fill="#FF6D00"/>
<path d="M512.942 351.13C513.012 351.109 513.075 351.065 513.123 351.003C513.171 350.941 513.202 350.863 513.212 350.781C513.222 350.698 513.21 350.614 513.178 350.539C513.147 350.465 513.096 350.402 513.033 350.361L509.185 347.816L512.905 344.629C512.943 344.597 512.975 344.555 512.999 344.508C513.024 344.461 513.04 344.409 513.047 344.355C513.054 344.3 513.052 344.245 513.04 344.192C513.028 344.138 513.008 344.088 512.979 344.044C512.951 344 512.915 343.963 512.874 343.935C512.834 343.907 512.788 343.888 512.741 343.88C512.694 343.872 512.646 343.875 512.6 343.888C512.554 343.901 512.51 343.925 512.472 343.958L508.307 347.526C508.259 347.567 508.22 347.622 508.195 347.685C508.169 347.748 508.158 347.817 508.161 347.886C508.165 347.956 508.183 348.023 508.215 348.082C508.247 348.141 508.291 348.19 508.343 348.225L512.672 351.087C512.754 351.141 512.851 351.156 512.942 351.13V351.13Z" fill="#FF6D00"/>
<path d="M519.121 353.541C519.156 353.531 519.189 353.515 519.22 353.493C519.261 353.464 519.296 353.427 519.325 353.382C519.353 353.338 519.373 353.288 519.384 353.234C519.396 353.181 519.398 353.125 519.39 353.071C519.383 353.017 519.367 352.965 519.342 352.918L513.423 341.694C513.373 341.6 513.292 341.532 513.199 341.506C513.106 341.48 513.007 341.498 512.925 341.555C512.843 341.613 512.784 341.706 512.761 341.814C512.738 341.921 512.753 342.035 512.803 342.13L518.722 353.353C518.762 353.43 518.823 353.489 518.895 353.523C518.966 353.557 519.046 353.563 519.121 353.541Z" fill="#FF6D00"/>
<path d="M186.39 218.322H154.32C153.012 218.322 151.952 219.545 151.952 221.054V224.668C151.952 226.177 153.012 227.4 154.32 227.4H186.39C187.698 227.4 188.759 226.177 188.759 224.668V221.054C188.759 219.545 187.698 218.322 186.39 218.322Z" fill="#FF6D00"/>
<path d="M205.083 236.478H135.627C134.319 236.478 133.259 237.701 133.259 239.21V242.824C133.259 244.333 134.319 245.556 135.627 245.556H205.083C206.391 245.556 207.452 244.333 207.452 242.824V239.21C207.452 237.701 206.391 236.478 205.083 236.478Z" fill="#E6E6E6"/>
<path d="M205.083 254.634H135.627C134.319 254.634 133.259 255.858 133.259 257.367V260.98C133.259 262.489 134.319 263.713 135.627 263.713H205.083C206.391 263.713 207.452 262.489 207.452 260.98V257.367C207.452 255.858 206.391 254.634 205.083 254.634Z" fill="#E6E6E6"/>
<path d="M210.971 315.433L211.128 316.006L211.136 316.025L215.872 332.63L221.319 351.766L231.568 387.726L231.667 393.312V393.331L232.429 438.267L230.318 444.359L232.694 454.347C232.694 454.347 231.601 439.249 225.74 447.919C222.42 452.846 218.538 457.888 215.35 462.615C219.995 464.782 224.713 466.743 229.507 468.497C230.542 468.878 231.585 469.241 232.628 469.604C232.851 469.681 233.075 469.757 233.298 469.833C249.187 475.253 265.614 478.299 282.175 478.895C283.036 478.924 283.881 478.943 284.7 478.962C284.99 478.971 285.271 478.981 285.553 478.981C286.48 478.99 287.399 479 288.326 479C290.197 479 292.06 478.968 293.914 478.905C307.64 478.458 321.285 476.33 334.62 472.555C334.529 466.205 334.281 458.786 333.925 450.86C333.759 446.974 330.042 442.763 329.819 438.695C329.661 435.64 332.998 432.766 332.824 429.662C331.698 410.555 330.291 417.89 329.247 404.36C329.14 403.032 329.04 401.762 328.949 400.55C328.279 391.861 327.815 386.427 327.815 386.427L332.269 354.048L339.265 303.211L338.726 302.189L338.122 301.846L301.224 280.781L299.221 274.861C298.637 273.156 297.624 271.691 296.313 270.654C295.001 269.618 293.451 269.058 291.861 269.046L267.555 268.932C266.294 268.925 265.049 269.265 263.925 269.925C262.8 270.584 261.828 271.543 261.09 272.722L254.508 283.235L210.971 315.433Z" fill="#3F3D56"/>
<path d="M237.173 379.724L231.667 393.312L227.909 402.593L221.443 441.638L218.206 445.6L215.433 431.572L186.406 439.006C185.454 432.904 186.152 439.212 185.564 432.519C185.729 432.328 185.903 432.137 186.077 431.946C186.541 431.449 186.93 430.981 186.922 430.532C186.59 407.444 187.584 368.151 195.879 344.347C197.178 340.46 198.891 336.774 200.979 333.375C201.144 333.117 201.301 332.859 201.459 332.602C205.283 326.424 207.701 320.341 211.128 316.016V316.006C211.15 315.986 211.169 315.964 211.186 315.939C211.199 315.932 211.21 315.923 211.219 315.911L234.764 301.511L235.774 334.244L236.494 357.772L237.173 379.724Z" fill="#3F3D56"/>
<path d="M322.069 383.583L328.946 400.554L331.346 406.465L337.81 445.505L341.036 449.458L343.816 435.434L345.122 435.125L368.678 429.498L375.543 454.647C377.091 451.674 377.7 448.175 377.269 444.742C376.838 441.31 375.392 438.154 373.176 435.81C372.708 435.32 372.317 434.844 372.328 434.393C372.719 407.237 371.279 357.651 358.273 337.242C354.142 330.765 351.664 324.314 348.058 319.807C348.047 319.795 348.047 319.782 348.036 319.782L339.261 303.21L338.725 302.193L338.123 301.845L322.069 383.583Z" fill="#3F3D56"/>
<path d="M280.41 260.953C298.269 260.953 312.746 244.255 312.746 223.656C312.746 203.058 298.269 186.359 280.41 186.359C262.551 186.359 248.074 203.058 248.074 223.656C248.074 244.255 262.551 260.953 280.41 260.953Z" fill="#FFB6B6"/>
<path d="M324.116 197.605C323.866 197.296 323.564 197.048 323.228 196.877C322.893 196.706 322.531 196.615 322.164 196.609L322.651 195.052C322.809 194.561 322.852 194.031 322.775 193.515C322.697 193 322.502 192.517 322.21 192.116C321.917 191.716 321.538 191.413 321.111 191.237C320.683 191.062 320.223 191.02 319.777 191.118L318.006 191.511L318.173 190.147C318.237 189.638 318.185 189.12 318.023 188.642C317.86 188.164 317.593 187.743 317.246 187.42C316.9 187.097 316.487 186.884 316.047 186.802C315.608 186.719 315.158 186.77 314.74 186.949C314.361 187.121 313.953 187.194 313.546 187.16C313.139 187.127 312.744 186.989 312.389 186.757C312.033 186.531 311.724 186.219 311.483 185.842C311.243 185.464 311.076 185.031 310.996 184.572L310.379 181.14L310.314 180.956C307.309 175.18 301.533 170.978 294.464 169.438C288.172 168.057 281.721 168.76 275.501 169.422C273.034 169.689 270.247 169.991 267.925 171.631C265.951 173.038 264.282 175.85 264.623 178.688C258.491 176.52 251.916 180.847 248.658 186.305C244.797 192.8 244.165 200.936 244.064 207.297C243.788 222.347 246.48 234.66 252.047 243.901C252.453 244.571 252.555 245.969 253.36 246.437L253.193 246.128C254.093 246.646 255.007 247.484 254.666 248.379C253.687 250.957 260.196 256.657 264.783 258.541C273.15 261.981 284.275 261.688 292.098 260.449L292.374 258.315C295.197 257.871 297.186 257.026 297.744 255.703C298.731 254.732 299.573 253.862 300.306 253.058L300.313 253.05C300.328 253.033 300.357 253.008 300.371 252.991C303.906 249.082 304.726 246.856 305.096 243.466C305.451 240.143 304.82 236.77 304.174 233.731C317.774 236.158 298.818 217.024 311.489 213.324C311.635 213.272 311.782 213.231 311.932 213.199C312.302 213.098 312.672 212.998 313.028 212.881C314.742 212.344 316.383 211.535 317.904 210.478C321.446 207.992 322.614 204.694 324.443 200.978C324.707 200.449 324.818 199.836 324.759 199.23C324.7 198.623 324.475 198.054 324.116 197.605V197.605Z" fill="#2F2E41"/>
<path d="M394.778 386.239C394.771 387.704 394.757 389.754 394.699 392.291C394.691 392.642 394.684 393.002 394.677 393.37C394.583 398.033 394.488 401.942 394.336 406.286C394.329 406.587 394.321 406.88 394.307 407.181C394.104 413.242 393.784 420.298 393.233 431.472C392.209 452.114 390.424 434.31 388.632 441.55C388.545 441.91 388.45 442.337 388.363 442.839C388.092 444.661 387.634 446.44 386.999 448.138C386.048 448.791 385.069 449.418 384.103 450.046C381.353 451.812 378.559 453.511 375.743 455.127C374.161 456.031 372.572 456.918 370.975 457.772C370.721 457.906 370.475 458.04 370.228 458.165C362.052 462.527 353.626 466.236 345.01 469.264C343.326 469.85 341.65 470.42 339.951 470.947C338.181 471.516 336.41 472.052 334.617 472.554C321.283 476.33 307.638 478.46 293.913 478.907C292.062 478.974 290.197 478.999 288.325 478.999C287.396 478.999 286.481 478.991 285.552 478.982C285.269 478.982 284.986 478.974 284.703 478.966C283.883 478.941 283.034 478.924 282.178 478.899C265.617 478.303 249.19 475.256 233.302 469.834L232.627 469.608C231.582 469.239 230.544 468.879 229.506 468.494C224.717 466.745 219.997 464.786 215.348 462.618C211.799 460.969 208.291 459.2 204.825 457.312C204.793 457.302 204.764 457.285 204.738 457.261C204.012 456.876 203.279 456.475 202.553 456.064C202.459 456.006 202.358 455.947 202.256 455.889C199.549 454.365 196.871 452.769 194.222 451.101C191.994 445.2 188.859 444.07 186.915 438.88C186.348 437.338 185.939 435.726 185.695 434.075C185.695 434.059 185.688 434.042 185.688 434.017C185.891 437.131 184.824 428.492 185.681 433.983C185.674 433.883 185.666 433.774 185.659 433.649C185.637 433.347 185.608 432.979 185.565 432.519C183.076 404.486 183.235 372.428 182.154 346.011C182.081 344.303 182.006 342.668 181.929 341.106C181.907 340.587 181.878 340.076 181.849 339.574C181.9 339.424 181.958 339.264 182.023 339.114C182.037 339.07 182.054 339.028 182.074 338.988C182.095 338.936 182.12 338.886 182.147 338.838C182.161 338.812 182.183 338.779 182.197 338.754C182.208 338.725 182.22 338.697 182.234 338.67C182.299 338.553 182.372 338.427 182.451 338.31C182.488 338.26 182.517 338.218 182.553 338.176C182.578 338.134 182.607 338.094 182.64 338.059C182.662 338.019 182.689 337.982 182.72 337.95C182.749 337.917 182.778 337.875 182.814 337.833C182.83 337.807 182.849 337.784 182.872 337.766C182.93 337.69 182.993 337.62 183.061 337.557C183.32 337.282 183.596 337.03 183.888 336.804C183.99 336.728 184.099 336.653 184.2 336.569C184.932 336.065 185.702 335.639 186.501 335.297C186.777 335.18 187.052 335.071 187.35 334.954C187.459 334.92 187.56 334.878 187.669 334.837C187.829 334.778 187.989 334.719 188.155 334.678C188.983 334.393 189.875 334.15 190.841 333.924C190.957 333.899 191.08 333.874 191.203 333.84C191.378 333.799 191.559 333.765 191.74 333.732C191.987 333.681 192.241 333.631 192.495 333.581C194.651 333.188 197.096 332.895 199.796 332.702C200.05 332.685 200.304 332.669 200.558 332.652C200.855 332.635 201.153 332.618 201.458 332.602C201.712 332.585 201.973 332.577 202.234 332.568C202.488 332.551 202.749 332.543 203.018 332.535C203.751 332.51 204.506 332.484 205.275 332.468C207.467 332.418 209.774 332.434 212.198 332.493C213.323 332.526 214.47 332.56 215.645 332.618C215.725 332.618 215.798 332.627 215.87 332.627C216.893 332.669 217.924 332.719 218.983 332.786C219.724 332.828 220.471 332.87 221.219 332.92C221.923 332.97 222.634 333.02 223.352 333.079C223.911 333.112 224.47 333.162 225.036 333.204C225.515 333.246 225.994 333.288 226.473 333.322L227.126 333.372C227.481 333.405 227.837 333.43 228.2 333.472C228.998 333.548 229.796 333.623 230.609 333.698C231.415 333.782 232.235 333.866 233.055 333.949C233.875 334.033 234.702 334.125 235.53 334.217C235.617 334.226 235.696 334.234 235.776 334.242C236.531 334.334 237.286 334.418 238.048 334.51C238.222 334.527 238.403 334.544 238.578 334.569C239.304 334.653 240.045 334.751 240.778 334.841C241.003 334.869 241.227 334.896 241.452 334.925C242.027 334.997 242.593 335.06 243.171 335.138C243.933 335.238 244.71 335.33 245.464 335.448C246.052 335.523 246.64 335.598 247.228 335.682C248.15 335.808 249.086 335.941 250.022 336.084C250.377 336.134 250.733 336.184 251.089 336.243C253.759 336.628 256.459 337.055 259.202 337.498C263.36 338.176 267.584 338.913 271.837 339.708C276.096 340.503 280.381 341.343 284.689 342.228C285.777 342.454 286.866 342.68 287.962 342.914C288.455 343.023 288.949 343.132 289.442 343.24C290.284 343.416 291.126 343.6 291.968 343.784C292.809 343.969 293.651 344.153 294.493 344.345C295.495 344.571 296.503 344.797 297.505 345.023C304.101 346.53 310.662 348.137 317.063 349.819C318.115 350.096 319.167 350.38 320.212 350.657C322.302 351.217 324.373 351.786 326.424 352.364C326.99 352.515 327.549 352.674 328.108 352.833C329.501 353.235 330.895 353.636 332.266 354.046L332.506 354.122C333.514 354.406 334.501 354.699 335.488 355.001C337.818 355.704 340.109 356.415 342.361 357.135C343.856 357.612 345.334 358.095 346.795 358.583C348.979 359.311 351.12 360.048 353.203 360.793C353.718 360.977 354.233 361.161 354.741 361.337C356.265 361.881 357.767 362.434 359.226 362.986C360.387 363.421 361.519 363.865 362.637 364.309C363.754 364.752 364.85 365.196 365.924 365.639C366.614 365.924 367.296 366.225 367.978 366.51C368.958 366.928 369.923 367.347 370.866 367.766C371.157 367.891 371.44 368.025 371.723 368.151C371.904 368.243 372.078 368.318 372.252 368.402C372.594 368.561 372.942 368.711 373.276 368.87C373.617 369.021 373.951 369.18 374.284 369.347C374.611 369.498 374.945 369.657 375.264 369.816C375.591 369.967 375.91 370.126 376.229 370.293C376.498 370.419 376.759 370.553 377.013 370.687C377.528 370.946 378.044 371.206 378.544 371.474C378.791 371.608 379.038 371.733 379.285 371.867L379.851 372.168C379.93 372.219 380.01 372.26 380.09 372.302C380.272 372.403 380.46 372.511 380.642 372.612C381.063 372.838 381.476 373.081 381.883 373.307C382.427 373.625 382.957 373.943 383.465 374.253C383.98 374.571 384.481 374.889 384.96 375.198C385.039 375.249 385.112 375.299 385.192 375.349C385.301 375.416 385.41 375.491 385.518 375.558C385.889 375.801 386.244 376.052 386.6 376.295C387.296 376.789 387.957 377.274 388.574 377.76C388.711 377.868 388.842 377.977 388.98 378.078C389.437 378.454 389.873 378.823 390.279 379.199C390.279 379.208 390.279 379.208 390.286 379.208C390.424 379.325 390.555 379.45 390.685 379.568C390.794 379.685 390.91 379.785 391.019 379.902C391.397 380.279 391.745 380.639 392.064 381.007C392.171 381.121 392.273 381.241 392.369 381.367C392.411 381.408 392.45 381.452 392.485 381.501C392.63 381.669 392.761 381.836 392.884 382.003C392.903 382.026 392.92 382.052 392.935 382.079C393.109 382.313 393.269 382.548 393.421 382.782C393.494 382.899 393.574 383.016 393.639 383.133C393.726 383.276 393.813 383.426 393.886 383.569C393.951 383.686 394.009 383.811 394.067 383.929C394.221 384.23 394.352 384.547 394.459 384.874C394.541 385.097 394.606 385.326 394.655 385.561C394.71 385.783 394.751 386.01 394.778 386.239V386.239Z" fill="#2F2E41"/>
<path opacity="0.2" d="M394.778 386.239C394.771 387.704 394.757 389.754 394.699 392.291C394.691 392.642 394.677 393.002 394.67 393.37C394.597 396.928 394.488 401.322 394.336 406.286C394.329 406.587 394.321 406.88 394.307 407.182C394.104 413.242 393.784 420.298 393.233 431.472C392.209 452.114 390.424 434.31 388.632 441.55C383.653 438.018 378.196 434.318 372.361 430.518C371.309 429.832 370.247 429.143 369.176 428.451C357.506 420.942 344.473 413.074 330.866 405.282C330.329 404.972 329.784 404.662 329.247 404.361C298.078 386.59 264.057 369.306 236.495 357.771C231.175 355.545 226.095 353.536 221.32 351.77C211.262 348.062 202.568 345.467 195.877 344.345C188.91 343.173 184.099 343.592 182.154 346.011C182.081 344.303 182.006 342.668 181.929 341.106C181.9 340.587 181.871 340.076 181.842 339.574C181.887 339.436 181.945 339.305 182.001 339.172C182.009 339.153 182.015 339.133 182.023 339.114C182.037 339.07 182.054 339.028 182.074 338.988C182.095 338.936 182.12 338.886 182.147 338.838C182.17 338.778 182.199 338.722 182.234 338.67C182.299 338.553 182.372 338.427 182.451 338.31C182.51 338.222 182.573 338.139 182.64 338.059C182.662 338.019 182.689 337.982 182.72 337.95C182.749 337.917 182.778 337.875 182.814 337.833C182.83 337.807 182.849 337.784 182.872 337.766C182.93 337.69 182.993 337.62 183.061 337.557C183.32 337.282 183.596 337.03 183.888 336.804C183.99 336.728 184.099 336.653 184.2 336.569C184.932 336.065 185.702 335.639 186.501 335.297C186.777 335.18 187.052 335.071 187.35 334.954C187.459 334.92 187.56 334.878 187.669 334.837C187.829 334.778 187.989 334.719 188.155 334.678C188.983 334.393 189.875 334.15 190.841 333.924C191.131 333.857 191.436 333.79 191.74 333.732C191.987 333.681 192.241 333.631 192.495 333.581C194.651 333.188 197.096 332.895 199.796 332.702C200.05 332.685 200.304 332.669 200.558 332.652C200.855 332.635 201.153 332.618 201.458 332.602C201.712 332.585 201.973 332.577 202.234 332.568C202.488 332.551 202.749 332.543 203.018 332.535C203.751 332.51 204.506 332.485 205.275 332.468C207.466 332.426 209.774 332.443 212.198 332.501C213.323 332.526 214.47 332.568 215.645 332.627C215.718 332.627 215.798 332.635 215.87 332.635C216.893 332.669 217.931 332.727 218.983 332.786C219.724 332.828 220.471 332.87 221.219 332.92C221.923 332.97 222.634 333.02 223.352 333.079C223.911 333.112 224.47 333.163 225.036 333.204C225.515 333.246 225.994 333.288 226.473 333.322C227.046 333.372 227.619 333.422 228.2 333.472C228.998 333.548 229.796 333.623 230.609 333.698C231.415 333.782 232.235 333.866 233.055 333.949C233.875 334.033 234.702 334.125 235.529 334.217C235.617 334.226 235.696 334.234 235.776 334.242C236.531 334.334 237.286 334.418 238.048 334.51C242.271 335.004 246.618 335.582 251.089 336.243C253.759 336.636 256.464 337.057 259.202 337.507C263.36 338.185 267.584 338.921 271.837 339.708C276.097 340.503 280.381 341.343 284.689 342.228C285.777 342.454 286.866 342.68 287.962 342.914C289.297 343.199 290.632 343.489 291.968 343.784C292.809 343.969 293.651 344.153 294.493 344.345C295.495 344.571 296.503 344.797 297.505 345.023C304.101 346.53 310.662 348.137 317.063 349.82C318.115 350.096 319.167 350.38 320.212 350.657C322.302 351.217 324.373 351.787 326.424 352.364C326.99 352.523 327.549 352.682 328.108 352.841C329.508 353.243 330.895 353.645 332.266 354.047V354.055C332.346 354.072 332.426 354.097 332.506 354.122C333.507 354.415 334.501 354.708 335.488 355.009C337.818 355.712 340.109 356.421 342.361 357.135C343.856 357.621 345.336 358.098 346.795 358.583C348.979 359.32 351.12 360.056 353.203 360.793C353.718 360.977 354.233 361.161 354.741 361.337C356.265 361.89 357.76 362.439 359.226 362.986C360.387 363.421 361.519 363.865 362.637 364.309C363.754 364.752 364.85 365.196 365.924 365.639C366.621 365.924 367.303 366.217 367.978 366.502C368.965 366.92 369.923 367.339 370.866 367.766C371.157 367.891 371.44 368.025 371.723 368.151C372.252 368.385 372.768 368.628 373.276 368.87C373.617 369.021 373.951 369.18 374.284 369.348C374.611 369.498 374.945 369.657 375.264 369.816C375.591 369.967 375.91 370.126 376.229 370.293C376.498 370.419 376.759 370.553 377.013 370.687C377.528 370.946 378.044 371.206 378.544 371.474C378.791 371.608 379.038 371.733 379.285 371.867L379.851 372.168C379.93 372.219 380.01 372.26 380.09 372.302C380.707 372.637 381.302 372.972 381.883 373.307C382.427 373.625 382.957 373.943 383.465 374.253C384.067 374.621 384.64 374.981 385.192 375.349C385.301 375.416 385.41 375.491 385.518 375.558C385.889 375.801 386.244 376.052 386.6 376.295C387.296 376.789 387.957 377.274 388.574 377.76C389.183 378.245 389.749 378.722 390.279 379.199C390.279 379.208 390.279 379.208 390.286 379.208C390.54 379.442 390.787 379.677 391.019 379.903C391.397 380.279 391.745 380.639 392.064 381.007C392.171 381.121 392.273 381.241 392.369 381.367C392.411 381.408 392.45 381.453 392.485 381.501C392.638 381.694 392.79 381.886 392.935 382.079C393.109 382.313 393.269 382.548 393.421 382.782C393.494 382.899 393.574 383.016 393.639 383.133C393.726 383.276 393.813 383.426 393.886 383.569C393.951 383.686 394.009 383.811 394.067 383.929C394.221 384.23 394.352 384.547 394.459 384.874C394.539 385.098 394.604 385.327 394.655 385.561C394.71 385.783 394.751 386.01 394.778 386.239V386.239Z" fill="black"/>
<path fill-rule="evenodd" clip-rule="evenodd" d="M116 449.433V443.5H113V449.433H107V452.4H113V458.333H116V452.4H122V449.433H116ZM116 404.933V399H113V404.933H107V407.9H113V413.833H116V407.9H122V404.933H116ZM71 449.433V443.5H68V449.433H62V452.4H68V458.333H71V452.4H77V449.433H71ZM71 404.933V399H68V404.933H62V407.9H68V413.833H71V407.9H77V404.933H71Z" fill="#3F3D56"/>
<path fill-rule="evenodd" clip-rule="evenodd" d="M528 157.433V151.5H525V157.433H519V160.4H525V166.333H528V160.4H534V157.433H528ZM528 112.933V107H525V112.933H519V115.9H525V121.833H528V115.9H534V112.933H528ZM483 157.433V151.5H480V157.433H474V160.4H480V166.333H483V160.4H489V157.433H483ZM483 112.933V107H480V112.933H474V115.9H480V121.833H483V115.9H489V112.933H483Z" fill="#3F3D56"/>
</g>
<defs>
<clipPath id="clip0_1_155">
<rect width="571" height="479" fill="white"/>
</clipPath>
</defs>
</svg>
