<svg id="visual" viewBox="0 0 675 100" width="675" height="100" xmlns="http://www.w3.org/2000/svg" xmlns:xlink="http://www.w3.org/1999/xlink" version="1.1"><path d="M0 67L10.2 62.7C20.3 58.3 40.7 49.7 61.2 49.2C81.7 48.7 102.3 56.3 122.8 53.3C143.3 50.3 163.7 36.7 184 29.5C204.3 22.3 224.7 21.7 245.2 26.3C265.7 31 286.3 41 306.8 47.5C327.3 54 347.7 57 368.2 52.5C388.7 48 409.3 36 429.8 35.2C450.3 34.3 470.7 44.7 491 44.7C511.3 44.7 531.7 34.3 552.2 29.7C572.7 25 593.3 26 613.8 29.3C634.3 32.7 654.7 38.3 664.8 41.2L675 44L675 101L664.8 101C654.7 101 634.3 101 613.8 101C593.3 101 572.7 101 552.2 101C531.7 101 511.3 101 491 101C470.7 101 450.3 101 429.8 101C409.3 101 388.7 101 368.2 101C347.7 101 327.3 101 306.8 101C286.3 101 265.7 101 245.2 101C224.7 101 204.3 101 184 101C163.7 101 143.3 101 122.8 101C102.3 101 81.7 101 61.2 101C40.7 101 20.3 101 10.2 101L0 101Z" fill="#ffd180"></path><path d="M0 78L10.2 77.8C20.3 77.7 40.7 77.3 61.2 68C81.7 58.7 102.3 40.3 122.8 32.7C143.3 25 163.7 28 184 30.8C204.3 33.7 224.7 36.3 245.2 41.2C265.7 46 286.3 53 306.8 55.7C327.3 58.3 347.7 56.7 368.2 56C388.7 55.3 409.3 55.7 429.8 51C450.3 46.3 470.7 36.7 491 35.2C511.3 33.7 531.7 40.3 552.2 46.8C572.7 53.3 593.3 59.7 613.8 58.5C634.3 57.3 654.7 48.7 664.8 44.3L675 40L675 101L664.8 101C654.7 101 634.3 101 613.8 101C593.3 101 572.7 101 552.2 101C531.7 101 511.3 101 491 101C470.7 101 450.3 101 429.8 101C409.3 101 388.7 101 368.2 101C347.7 101 327.3 101 306.8 101C286.3 101 265.7 101 245.2 101C224.7 101 204.3 101 184 101C163.7 101 143.3 101 122.8 101C102.3 101 81.7 101 61.2 101C40.7 101 20.3 101 10.2 101L0 101Z" fill="#fec36a"></path><path d="M0 41L10.2 44.3C20.3 47.7 40.7 54.3 61.2 53.7C81.7 53 102.3 45 122.8 49.2C143.3 53.3 163.7 69.7 184 77C204.3 84.3 224.7 82.7 245.2 76.5C265.7 70.3 286.3 59.7 306.8 53.8C327.3 48 347.7 47 368.2 53C388.7 59 409.3 72 429.8 70.2C450.3 68.3 470.7 51.7 491 47.7C511.3 43.7 531.7 52.3 552.2 58.5C572.7 64.7 593.3 68.3 613.8 66.5C634.3 64.7 654.7 57.3 664.8 53.7L675 50L675 101L664.8 101C654.7 101 634.3 101 613.8 101C593.3 101 572.7 101 552.2 101C531.7 101 511.3 101 491 101C470.7 101 450.3 101 429.8 101C409.3 101 388.7 101 368.2 101C347.7 101 327.3 101 306.8 101C286.3 101 265.7 101 245.2 101C224.7 101 204.3 101 184 101C163.7 101 143.3 101 122.8 101C102.3 101 81.7 101 61.2 101C40.7 101 20.3 101 10.2 101L0 101Z" fill="#feb454"></path><path d="M0 64L10.2 61C20.3 58 40.7 52 61.2 50.2C81.7 48.3 102.3 50.7 122.8 53C143.3 55.3 163.7 57.7 184 60C204.3 62.3 224.7 64.7 245.2 68.2C265.7 71.7 286.3 76.3 306.8 75.2C327.3 74 347.7 67 368.2 62C388.7 57 409.3 54 429.8 58C450.3 62 470.7 73 491 73.7C511.3 74.3 531.7 64.7 552.2 58.2C572.7 51.7 593.3 48.3 613.8 49C634.3 49.7 654.7 54.3 664.8 56.7L675 59L675 101L664.8 101C654.7 101 634.3 101 613.8 101C593.3 101 572.7 101 552.2 101C531.7 101 511.3 101 491 101C470.7 101 450.3 101 429.8 101C409.3 101 388.7 101 368.2 101C347.7 101 327.3 101 306.8 101C286.3 101 265.7 101 245.2 101C224.7 101 204.3 101 184 101C163.7 101 143.3 101 122.8 101C102.3 101 81.7 101 61.2 101C40.7 101 20.3 101 10.2 101L0 101Z" fill="#fea440"></path><path d="M0 87L10.2 83.3C20.3 79.7 40.7 72.3 61.2 72.8C81.7 73.3 102.3 81.7 122.8 80.7C143.3 79.7 163.7 69.3 184 68.8C204.3 68.3 224.7 77.7 245.2 77C265.7 76.3 286.3 65.7 306.8 60.8C327.3 56 347.7 57 368.2 62C388.7 67 409.3 76 429.8 75.5C450.3 75 470.7 65 491 63.7C511.3 62.3 531.7 69.7 552.2 72.8C572.7 76 593.3 75 613.8 72.8C634.3 70.7 654.7 67.3 664.8 65.7L675 64L675 101L664.8 101C654.7 101 634.3 101 613.8 101C593.3 101 572.7 101 552.2 101C531.7 101 511.3 101 491 101C470.7 101 450.3 101 429.8 101C409.3 101 388.7 101 368.2 101C347.7 101 327.3 101 306.8 101C286.3 101 265.7 101 245.2 101C224.7 101 204.3 101 184 101C163.7 101 143.3 101 122.8 101C102.3 101 81.7 101 61.2 101C40.7 101 20.3 101 10.2 101L0 101Z" fill="#fe932c"></path><path d="M0 65L10.2 67.3C20.3 69.7 40.7 74.3 61.2 75.7C81.7 77 102.3 75 122.8 72.7C143.3 70.3 163.7 67.7 184 67.5C204.3 67.3 224.7 69.7 245.2 73C265.7 76.3 286.3 80.7 306.8 79.5C327.3 78.3 347.7 71.7 368.2 72.7C388.7 73.7 409.3 82.3 429.8 84C450.3 85.7 470.7 80.3 491 76C511.3 71.7 531.7 68.3 552.2 70.3C572.7 72.3 593.3 79.7 613.8 82.7C634.3 85.7 654.7 84.3 664.8 83.7L675 83L675 101L664.8 101C654.7 101 634.3 101 613.8 101C593.3 101 572.7 101 552.2 101C531.7 101 511.3 101 491 101C470.7 101 450.3 101 429.8 101C409.3 101 388.7 101 368.2 101C347.7 101 327.3 101 306.8 101C286.3 101 265.7 101 245.2 101C224.7 101 204.3 101 184 101C163.7 101 143.3 101 122.8 101C102.3 101 81.7 101 61.2 101C40.7 101 20.3 101 10.2 101L0 101Z" fill="#ff8118"></path><path d="M0 76L10.2 78.8C20.3 81.7 40.7 87.3 61.2 89.2C81.7 91 102.3 89 122.8 87C143.3 85 163.7 83 184 84.3C204.3 85.7 224.7 90.3 245.2 91.8C265.7 93.3 286.3 91.7 306.8 89.2C327.3 86.7 347.7 83.3 368.2 82.2C388.7 81 409.3 82 429.8 84.2C450.3 86.3 470.7 89.7 491 90.7C511.3 91.7 531.7 90.3 552.2 89.7C572.7 89 593.3 89 613.8 89.2C634.3 89.3 654.7 89.7 664.8 89.8L675 90L675 101L664.8 101C654.7 101 634.3 101 613.8 101C593.3 101 572.7 101 552.2 101C531.7 101 511.3 101 491 101C470.7 101 450.3 101 429.8 101C409.3 101 388.7 101 368.2 101C347.7 101 327.3 101 306.8 101C286.3 101 265.7 101 245.2 101C224.7 101 204.3 101 184 101C163.7 101 143.3 101 122.8 101C102.3 101 81.7 101 61.2 101C40.7 101 20.3 101 10.2 101L0 101Z" fill="#ff6d00"></path></svg>